<svg width="953.5" height="75.901" viewBox="0 0 953.5 75.901" xmlns="http://www.w3.org/2000/svg">
	<g id="svgGroup" stroke-linecap="round" fill-rule="evenodd" font-size="9pt" stroke="#000" stroke-width="0.25mm" fill="none" style="stroke:#000;stroke-width:0.25mm;fill:none">
		<path d="M 46 70.001 L 37.7 70.001 L 37.7 7.201 L 27 46.501 L 18.7 46.501 L 8 7.201 L 8 70.001 L 0 70.001 L 0 0.001 L 14.1 0.001 L 23.2 35.801 L 32.2 0.001 L 46 0.001 L 46 70.001 Z" id="0" vector-effect="non-scaling-stroke"/>
		<path d="M 102 70.001 L 93.1 70.001 L 89.3 52.301 L 69.8 52.301 L 65.9 70.001 L 57 70.001 L 73.9 0.001 L 85.4 0.001 L 102 70.001 Z M 87.7 44.801 L 79.5 6.601 L 71.4 44.801 L 87.7 44.801 Z" id="1" vector-effect="non-scaling-stroke"/>
		<path d="M 143.5 70.001 L 130.6 41.001 L 121.7 41.001 L 121.7 70.001 L 113 70.001 L 113 0.001 L 130.9 0.001 A 30.805 30.805 0 0 1 135.694 0.349 Q 140.725 1.143 143.75 3.751 A 11.556 11.556 0 0 1 147.112 8.868 Q 148.1 11.74 148.1 15.601 L 148.1 25.201 Q 148.1 32.417 144.43 36.167 A 12.487 12.487 0 0 1 139.1 39.301 L 153 70.001 L 143.5 70.001 Z M 132.1 7.501 L 121.7 7.501 L 121.7 33.501 L 132.1 33.501 A 13.12 13.12 0 0 0 134.075 33.362 Q 135.107 33.205 135.929 32.868 A 5.173 5.173 0 0 0 137.65 31.751 A 5.274 5.274 0 0 0 138.846 29.827 Q 139.4 28.338 139.4 26.201 L 139.4 14.701 A 13.041 13.041 0 0 0 139.262 12.729 Q 139.107 11.72 138.779 10.918 A 4.99 4.99 0 0 0 137.65 9.201 A 5.254 5.254 0 0 0 135.809 8.069 Q 135.005 7.767 134.009 7.625 A 13.613 13.613 0 0 0 132.1 7.501 Z" id="2" vector-effect="non-scaling-stroke"/>
		<path d="M 163 53.001 L 163 17.001 Q 163 10.966 165.344 7.073 A 12.622 12.622 0 0 1 167.65 4.251 Q 172.3 0.001 181 0.001 L 193.2 0.001 L 193.2 7.601 L 180 7.601 A 10.154 10.154 0 0 0 177.323 7.936 A 7.628 7.628 0 0 0 174 9.801 A 7.419 7.419 0 0 0 172.222 12.35 A 7.174 7.174 0 0 0 171.7 15.101 L 171.7 54.901 A 7.044 7.044 0 0 0 173.858 60.062 A 8.908 8.908 0 0 0 174 60.201 A 7.812 7.812 0 0 0 178.29 62.272 A 10.916 10.916 0 0 0 180 62.401 L 193.2 62.401 L 193.2 70.001 L 181 70.001 Q 174.818 70.001 170.681 67.855 A 14.067 14.067 0 0 1 167.65 65.751 A 13.425 13.425 0 0 1 163.898 59.651 Q 163.225 57.465 163.056 54.817 A 28.627 28.627 0 0 1 163 53.001 Z" id="3" vector-effect="non-scaling-stroke"/>
		<path d="M 238.5 70.001 L 205.7 70.001 L 205.7 0.001 L 238.5 0.001 L 238.5 7.301 L 214.4 7.301 L 214.4 30.201 L 236 30.201 L 236 37.501 L 214.4 37.501 L 214.4 62.701 L 238.5 62.701 L 238.5 70.001 Z" id="4" vector-effect="non-scaling-stroke"/>
		<path d="M 284 70.001 L 253 70.001 L 253 0.001 L 261.7 0.001 L 261.7 62.401 L 284 62.401 L 284 70.001 Z" id="5" vector-effect="non-scaling-stroke"/>
		<path d="M 312.4 70.001 L 309 70.001 Q 302.818 70.001 298.681 67.855 A 14.067 14.067 0 0 1 295.65 65.751 A 13.425 13.425 0 0 1 291.898 59.651 Q 291.225 57.465 291.056 54.817 A 28.627 28.627 0 0 1 291 53.001 L 291 17.001 Q 291 10.966 293.344 7.073 A 12.622 12.622 0 0 1 295.65 4.251 Q 300.3 0.001 309 0.001 L 312.4 0.001 Q 318.582 0.001 322.719 2.147 A 14.067 14.067 0 0 1 325.75 4.251 A 13.425 13.425 0 0 1 329.502 10.351 Q 330.175 12.537 330.344 15.184 A 28.627 28.627 0 0 1 330.4 17.001 L 330.4 53.001 Q 330.4 59.035 328.056 62.928 A 12.622 12.622 0 0 1 325.75 65.751 Q 321.1 70.001 312.4 70.001 Z M 313.4 7.601 L 308 7.601 A 10.154 10.154 0 0 0 305.323 7.936 A 7.628 7.628 0 0 0 302 9.801 A 7.419 7.419 0 0 0 300.222 12.35 A 7.174 7.174 0 0 0 299.7 15.101 L 299.7 54.901 A 7.044 7.044 0 0 0 301.858 60.062 A 8.908 8.908 0 0 0 302 60.201 A 7.812 7.812 0 0 0 306.29 62.272 A 10.916 10.916 0 0 0 308 62.401 L 313.4 62.401 A 10.154 10.154 0 0 0 316.077 62.065 A 7.628 7.628 0 0 0 319.4 60.201 A 7.419 7.419 0 0 0 321.178 57.651 A 7.174 7.174 0 0 0 321.7 54.901 L 321.7 15.101 A 7.044 7.044 0 0 0 319.542 9.939 A 8.908 8.908 0 0 0 319.4 9.801 A 7.812 7.812 0 0 0 315.11 7.73 A 10.916 10.916 0 0 0 313.4 7.601 Z" id="6" vector-effect="non-scaling-stroke"/>
		<path d="M 390.5 42.801 L 381.1 42.801 L 381.1 70.001 L 372.4 70.001 L 372.4 0.001 L 390.3 0.001 A 30.805 30.805 0 0 1 395.094 0.349 Q 400.125 1.143 403.15 3.751 A 11.556 11.556 0 0 1 406.512 8.868 Q 407.5 11.74 407.5 15.601 L 407.5 27.001 A 24.205 24.205 0 0 1 407.121 31.435 Q 406.658 33.915 405.63 35.835 A 11.293 11.293 0 0 1 403.2 38.951 Q 399.787 42.006 393.792 42.637 A 31.509 31.509 0 0 1 390.5 42.801 Z M 391.5 7.501 L 381.1 7.501 L 381.1 35.301 L 391.5 35.301 A 13.12 13.12 0 0 0 393.475 35.162 Q 394.507 35.005 395.329 34.668 A 5.173 5.173 0 0 0 397.05 33.551 A 5.274 5.274 0 0 0 398.246 31.627 Q 398.8 30.138 398.8 28.001 L 398.8 14.701 A 13.041 13.041 0 0 0 398.662 12.729 Q 398.507 11.72 398.179 10.918 A 4.99 4.99 0 0 0 397.05 9.201 A 5.254 5.254 0 0 0 395.209 8.069 Q 394.405 7.767 393.409 7.625 A 13.613 13.613 0 0 0 391.5 7.501 Z" id="8" vector-effect="non-scaling-stroke"/>
		<path d="M 456.5 70.001 L 447.6 70.001 L 443.8 52.301 L 424.3 52.301 L 420.4 70.001 L 411.5 70.001 L 428.4 0.001 L 439.9 0.001 L 456.5 70.001 Z M 442.2 44.801 L 434 6.601 L 425.9 44.801 L 442.2 44.801 Z" id="9" vector-effect="non-scaling-stroke"/>
		<path d="M 500.3 70.001 L 467.5 70.001 L 467.5 0.001 L 500.3 0.001 L 500.3 7.301 L 476.2 7.301 L 476.2 30.201 L 497.8 30.201 L 497.8 37.501 L 476.2 37.501 L 476.2 62.701 L 500.3 62.701 L 500.3 70.001 Z" id="10" vector-effect="non-scaling-stroke"/>
		<path d="M 545.4 8.801 L 519.7 62.601 L 544.4 62.601 L 544.4 70.001 L 510.8 70.001 L 510.8 61.201 L 536.6 7.401 L 513.1 7.401 L 513.1 0.001 L 545.4 0.001 L 545.4 8.801 Z" id="11" vector-effect="non-scaling-stroke"/>
		<path d="M 596.3 70.001 L 583.1 70.001 L 583.1 62.401 L 597.3 62.401 A 10.154 10.154 0 0 0 599.977 62.065 A 7.628 7.628 0 0 0 603.3 60.201 A 7.419 7.419 0 0 0 605.078 57.651 A 7.174 7.174 0 0 0 605.6 54.901 L 605.6 44.501 Q 605.6 41.559 604.11 39.723 A 6.039 6.039 0 0 0 604.05 39.651 A 4.942 4.942 0 0 0 601.468 38.05 Q 600.654 37.832 599.681 37.804 A 10.039 10.039 0 0 0 599.4 37.801 L 597.4 37.801 Q 590 37.801 585.7 33.451 A 13.905 13.905 0 0 1 582.345 27.714 Q 581.666 25.541 581.475 22.92 A 29.177 29.177 0 0 1 581.4 20.801 L 581.4 17.001 Q 581.4 10.966 583.744 7.073 A 12.622 12.622 0 0 1 586.05 4.251 Q 590.7 0.001 599.4 0.001 L 612.7 0.001 L 612.7 7.601 L 598.4 7.601 A 10.154 10.154 0 0 0 595.723 7.936 A 7.628 7.628 0 0 0 592.4 9.801 A 7.419 7.419 0 0 0 590.622 12.35 A 7.174 7.174 0 0 0 590.1 15.101 L 590.1 22.701 A 7.898 7.898 0 0 0 590.511 25.294 A 6.807 6.807 0 0 0 592.1 27.851 A 6.705 6.705 0 0 0 596.329 29.851 A 9.179 9.179 0 0 0 597.3 29.901 L 599.3 29.901 Q 606.4 29.901 610.35 34.001 A 12.77 12.77 0 0 1 613.185 38.767 Q 613.873 40.757 614.137 43.198 A 29.887 29.887 0 0 1 614.3 46.401 L 614.3 53.001 Q 614.3 59.035 611.956 62.928 A 12.622 12.622 0 0 1 609.65 65.751 Q 605 70.001 596.3 70.001 Z" id="13" vector-effect="non-scaling-stroke"/>
		<path d="M 661.1 70.001 L 628.3 70.001 L 628.3 0.001 L 661.1 0.001 L 661.1 7.301 L 637 7.301 L 637 30.201 L 658.6 30.201 L 658.6 37.501 L 637 37.501 L 637 62.701 L 661.1 62.701 L 661.1 70.001 Z" id="14" vector-effect="non-scaling-stroke"/>
		<path d="M 713.4 75.901 L 705.7 68.101 A 17.512 17.512 0 0 1 701.626 69.464 Q 699.081 70.001 696 70.001 L 692.6 70.001 Q 686.418 70.001 682.281 67.855 A 14.067 14.067 0 0 1 679.25 65.751 A 13.425 13.425 0 0 1 675.498 59.651 Q 674.825 57.465 674.656 54.817 A 28.627 28.627 0 0 1 674.6 53.001 L 674.6 17.001 Q 674.6 10.966 676.944 7.073 A 12.622 12.622 0 0 1 679.25 4.251 Q 683.9 0.001 692.6 0.001 L 696 0.001 Q 702.182 0.001 706.319 2.147 A 14.067 14.067 0 0 1 709.35 4.251 A 13.425 13.425 0 0 1 713.102 10.351 Q 713.775 12.537 713.944 15.184 A 28.627 28.627 0 0 1 714 17.001 L 714 53.001 Q 714 58.901 711.6 62.701 L 719.1 70.201 L 713.4 75.901 Z M 697 7.601 L 691.6 7.601 A 10.154 10.154 0 0 0 688.923 7.936 A 7.628 7.628 0 0 0 685.6 9.801 A 7.419 7.419 0 0 0 683.822 12.35 A 7.174 7.174 0 0 0 683.3 15.101 L 683.3 54.901 A 7.044 7.044 0 0 0 685.458 60.062 A 8.908 8.908 0 0 0 685.6 60.201 A 7.812 7.812 0 0 0 689.89 62.272 A 10.916 10.916 0 0 0 691.6 62.401 L 697 62.401 A 11.995 11.995 0 0 0 699.518 62.151 Q 701.148 61.802 702.387 60.96 A 7.114 7.114 0 0 0 703.05 60.451 A 6.338 6.338 0 0 0 705.117 56.82 A 9.55 9.55 0 0 0 705.3 54.901 L 705.3 15.101 A 7.044 7.044 0 0 0 703.142 9.939 A 8.908 8.908 0 0 0 703 9.801 A 7.812 7.812 0 0 0 698.71 7.73 A 10.916 10.916 0 0 0 697 7.601 Z" id="15" vector-effect="non-scaling-stroke"/>
		<path d="M 749 70.001 L 747.5 70.001 Q 741.318 70.001 737.181 67.855 A 14.067 14.067 0 0 1 734.15 65.751 A 13.425 13.425 0 0 1 730.398 59.651 Q 729.725 57.465 729.556 54.817 A 28.627 28.627 0 0 1 729.5 53.001 L 729.5 0.001 L 738.2 0.001 L 738.2 54.901 A 7.044 7.044 0 0 0 740.358 60.062 A 8.908 8.908 0 0 0 740.5 60.201 A 7.812 7.812 0 0 0 744.79 62.272 A 10.916 10.916 0 0 0 746.5 62.401 L 750 62.401 A 10.154 10.154 0 0 0 752.677 62.065 A 7.628 7.628 0 0 0 756 60.201 A 7.419 7.419 0 0 0 757.778 57.651 A 7.174 7.174 0 0 0 758.3 54.901 L 758.3 0.001 L 767 0.001 L 767 53.001 Q 767 59.035 764.656 62.928 A 12.622 12.622 0 0 1 762.35 65.751 Q 757.7 70.001 749 70.001 Z" id="16" vector-effect="non-scaling-stroke"/>
		<path d="M 816.3 70.001 L 783.5 70.001 L 783.5 0.001 L 816.3 0.001 L 816.3 7.301 L 792.2 7.301 L 792.2 30.201 L 813.8 30.201 L 813.8 37.501 L 792.2 37.501 L 792.2 62.701 L 816.3 62.701 L 816.3 70.001 Z" id="17" vector-effect="non-scaling-stroke"/>
		<path d="M 849.5 70.001 L 826.8 70.001 L 826.8 62.701 L 833.8 62.701 L 833.8 7.301 L 826.8 7.301 L 826.8 0.001 L 849.5 0.001 L 849.5 7.301 L 842.5 7.301 L 842.5 62.701 L 849.5 62.701 L 849.5 70.001 Z" id="18" vector-effect="non-scaling-stroke"/>
		<path d="M 893 70.001 L 880.1 41.001 L 871.2 41.001 L 871.2 70.001 L 862.5 70.001 L 862.5 0.001 L 880.4 0.001 A 30.805 30.805 0 0 1 885.194 0.349 Q 890.225 1.143 893.25 3.751 A 11.556 11.556 0 0 1 896.612 8.868 Q 897.6 11.74 897.6 15.601 L 897.6 25.201 Q 897.6 32.417 893.93 36.167 A 12.487 12.487 0 0 1 888.6 39.301 L 902.5 70.001 L 893 70.001 Z M 881.6 7.501 L 871.2 7.501 L 871.2 33.501 L 881.6 33.501 A 13.12 13.12 0 0 0 883.575 33.362 Q 884.607 33.205 885.429 32.868 A 5.173 5.173 0 0 0 887.15 31.751 A 5.274 5.274 0 0 0 888.346 29.827 Q 888.9 28.338 888.9 26.201 L 888.9 14.701 A 13.041 13.041 0 0 0 888.762 12.729 Q 888.607 11.72 888.279 10.918 A 4.99 4.99 0 0 0 887.15 9.201 A 5.254 5.254 0 0 0 885.309 8.069 Q 884.505 7.767 883.509 7.625 A 13.613 13.613 0 0 0 881.6 7.501 Z" id="19" vector-effect="non-scaling-stroke"/>
		<path d="M 953.5 70.001 L 944.6 70.001 L 940.8 52.301 L 921.3 52.301 L 917.4 70.001 L 908.5 70.001 L 925.4 0.001 L 936.9 0.001 L 953.5 70.001 Z M 939.2 44.801 L 931 6.601 L 922.9 44.801 L 939.2 44.801 Z" id="20" vector-effect="non-scaling-stroke"/>
	</g>
</svg>