<svg width="1007px" height="118.39999999999999px" xmlns="http://www.w3.org/2000/svg" viewBox="-253.5 15.800000000000004 1007 118.39999999999999" style="background: rgba(0, 0, 0, 0);" preserveAspectRatio="xMidYMid"><defs><filter id="editing-neon" x="-100%" y="-100%" width="300%" height="300%"><feFlood flood-color="#00ff2f" result="flood"></feFlood><feComposite operator="in" in="flood" in2="SourceAlpha" result="color"></feComposite><feFlood flood-color="#00ff2f" result="flood2"></feFlood><feComposite operator="in" in="flood2" in2="SourceAlpha" result="color2"></feComposite><feMorphology operator="dilate" radius="2" in="color" result="dilate"></feMorphology><feGaussianBlur stdDeviation="6" in="color" result="blur1"></feGaussianBlur><feGaussianBlur stdDeviation="2.5" in="color" result="blur2"></feGaussianBlur><feGaussianBlur stdDeviation="1" in="SourceAlpha" result="blur3"></feGaussianBlur><feGaussianBlur stdDeviation="6" in="dilate" result="blur4"></feGaussianBlur><feConvolveMatrix in="color2" result="conv" order="3,3" divisor="1" kernelMatrix="1 1 1  1 1 1  1 1 1"></feConvolveMatrix><feMerge><feMergeNode in="blur1"></feMergeNode><feMergeNode in="blur2"></feMergeNode><feMergeNode in="blur4"></feMergeNode><feMergeNode in="blur3"></feMergeNode><feMergeNode in="blur3"></feMergeNode><feMergeNode in="blur3"></feMergeNode><feMergeNode in="blur3"></feMergeNode><feMergeNode in="conv"></feMergeNode><feMergeNode in="SourceGraphic"></feMergeNode></feMerge></filter></defs><g filter="url(#editing-neon)"><g transform="translate(-113.13501811027527, 99.28999900817871)"><path d="M26.24-40.19L19.84-15.04L14.53-15.04L8.26-40.19L8.26 0L3.39 0L3.39-44.80L12.29-44.80L17.41-21.89L22.59-44.80L31.23-44.80L31.23 0L26.24 0L26.24-40.19ZM58.11-11.33L45.63-11.33L43.14 0L37.44 0L48.26-44.80L55.62-44.80L66.24 0L60.54 0L58.11-11.33ZM46.66-16.13L57.09-16.13L51.84-40.58L46.66-16.13ZM85.44-18.56L79.17-18.56L79.17 0L73.60 0L73.60-44.80L85.63-44.80L85.63-44.80Q91.07-44.80 93.86-42.40L93.86-42.40L93.86-42.40Q96.64-40 96.64-34.82L96.64-34.82L96.64-28.67L96.64-28.67Q96.64-21.44 90.88-19.65L90.88-19.65L99.78 0L93.70 0L85.44-18.56ZM91.07-35.39L91.07-35.39Q91.07-37.82 89.95-38.91L89.95-38.91L89.95-38.91Q88.83-40 86.40-40L86.40-40L79.17-40L79.17-23.36L86.40-23.36L86.40-23.36Q88.83-23.36 89.95-24.48L89.95-24.48L89.95-24.48Q91.07-25.60 91.07-28.03L91.07-28.03L91.07-35.39ZM122.18 0L122.18 0Q116.61 0 113.63-2.72L113.63-2.72L113.63-2.72Q110.66-5.44 110.66-10.88L110.66-10.88L110.66-33.92L110.66-33.92Q110.66-39.36 113.63-42.08L113.63-42.08L113.63-42.08Q116.61-44.80 122.18-44.80L122.18-44.80L131.26-44.80L131.26-39.94L121.54-39.94L121.54-39.94Q119.17-39.94 117.70-38.53L117.70-38.53L117.70-38.53Q116.22-37.12 116.22-35.14L116.22-35.14L116.22-9.66L116.22-9.66Q116.22-7.68 117.70-6.27L117.70-6.27L117.70-6.27Q119.17-4.86 121.54-4.86L121.54-4.86L131.26-4.86L131.26 0L122.18 0ZM144.83-44.80L166.21-44.80L166.21-40.13L150.40-40.13L150.40-25.47L164.61-25.47L164.61-20.80L150.40-20.80L150.40-4.67L166.21-4.67L166.21 0L144.83 0L144.83-44.80ZM180.16-44.80L185.73-44.80L185.73-4.86L200-4.86L200 0L180.16 0L180.16-44.80ZM237.44-10.88L237.44-10.88Q237.44-5.44 234.46-2.72L234.46-2.72L234.46-2.72Q231.49 0 225.92 0L225.92 0L223.36 0L223.36 0Q217.79 0 214.82-2.72L214.82-2.72L214.82-2.72Q211.84-5.44 211.84-10.88L211.84-10.88L211.84-33.92L211.84-33.92Q211.84-39.36 214.82-42.08L214.82-42.08L214.82-42.08Q217.79-44.80 223.36-44.80L223.36-44.80L225.92-44.80L225.92-44.80Q231.49-44.80 234.46-42.08L234.46-42.08L234.46-42.08Q237.44-39.36 237.44-33.92L237.44-33.92L237.44-10.88ZM231.87-35.14L231.87-35.14Q231.87-37.12 230.40-38.53L230.40-38.53L230.40-38.53Q228.93-39.94 226.56-39.94L226.56-39.94L222.72-39.94L222.72-39.94Q220.35-39.94 218.88-38.53L218.88-38.53L218.88-38.53Q217.41-37.12 217.41-35.14L217.41-35.14L217.41-9.66L217.41-9.66Q217.41-7.68 218.88-6.27L218.88-6.27L218.88-6.27Q220.35-4.86 222.72-4.86L222.72-4.86L226.56-4.86L226.56-4.86Q228.93-4.86 230.40-6.27L230.40-6.27L230.40-6.27Q231.87-7.68 231.87-9.66L231.87-9.66L231.87-35.14ZM305.34-27.52L305.34-27.52Q305.34-22.34 302.59-19.87L302.59-19.87L302.59-19.87Q299.84-17.41 294.46-17.41L294.46-17.41L287.81-17.41L287.81 0L282.24 0L282.24-44.80L294.34-44.80L294.34-44.80Q299.78-44.80 302.56-42.40L302.56-42.40L302.56-42.40Q305.34-40 305.34-34.82L305.34-34.82L305.34-27.52ZM299.78-35.39L299.78-35.39Q299.78-37.82 298.66-38.91L298.66-38.91L298.66-38.91Q297.54-40 295.10-40L295.10-40L287.81-40L287.81-22.21L295.10-22.21L295.10-22.21Q297.54-22.21 298.66-23.33L298.66-23.33L298.66-23.33Q299.78-24.45 299.78-26.88L299.78-26.88L299.78-35.39ZM334.59-11.33L322.11-11.33L319.62 0L313.92 0L324.74-44.80L332.10-44.80L342.72 0L337.02 0L334.59-11.33ZM323.14-16.13L333.57-16.13L328.32-40.58L323.14-16.13ZM352.19-44.80L373.57-44.80L373.57-40.13L357.76-40.13L357.76-25.47L371.97-25.47L371.97-20.80L357.76-20.80L357.76-4.67L373.57-4.67L373.57 0L352.19 0L352.19-44.80ZM408.38-4.74L408.38 0L385.73 0L385.73-5.63L403.26-40.06L387.20-40.06L387.20-44.80L409.02-44.80L409.02-39.17L391.55-4.74L408.38-4.74ZM477.38-10.88L477.38-10.88Q477.38-5.44 474.40-2.72L474.40-2.72L474.40-2.72Q471.42 0 465.86 0L465.86 0L456.77 0L456.77-4.86L466.50-4.86L466.50-4.86Q468.86-4.86 470.34-6.27L470.34-6.27L470.34-6.27Q471.81-7.68 471.81-9.66L471.81-9.66L471.81-16.32L471.81-16.32Q471.81-18.24 470.82-19.42L470.82-19.42L470.82-19.42Q469.82-20.61 467.84-20.61L467.84-20.61L465.92-20.61L465.92-20.61Q461.18-20.61 458.43-23.39L458.43-23.39L458.43-23.39Q455.68-26.18 455.68-31.49L455.68-31.49L455.68-33.92L455.68-33.92Q455.68-39.36 458.66-42.08L458.66-42.08L458.66-42.08Q461.63-44.80 467.20-44.80L467.20-44.80L476.35-44.80L476.35-39.94L466.56-39.94L466.56-39.94Q464.19-39.94 462.72-38.53L462.72-38.53L462.72-38.53Q461.25-37.12 461.25-35.14L461.25-35.14L461.25-30.27L461.25-30.27Q461.25-28.29 462.53-26.98L462.53-26.98L462.53-26.98Q463.81-25.66 465.86-25.66L465.86-25.66L467.78-25.66L467.78-25.66Q472.32-25.66 474.85-23.04L474.85-23.04L474.85-23.04Q477.38-20.42 477.38-15.10L477.38-15.10L477.38-10.88ZM490.43-44.80L511.81-44.80L511.81-40.13L496.00-40.13L496.00-25.47L510.21-25.47L510.21-20.80L496.00-20.80L496.00-4.67L511.81-4.67L511.81 0L490.43 0L490.43-44.80ZM543.10-1.15L543.10-1.15Q540.61 0 536.96 0L536.96 0L534.40 0L534.40 0Q528.83 0 525.86-2.72L525.86-2.72L525.86-2.72Q522.88-5.44 522.88-10.88L522.88-10.88L522.88-33.92L522.88-33.92Q522.88-39.36 525.86-42.08L525.86-42.08L525.86-42.08Q528.83-44.80 534.40-44.80L534.40-44.80L536.96-44.80L536.96-44.80Q542.53-44.80 545.50-42.08L545.50-42.08L545.50-42.08Q548.48-39.36 548.48-33.92L548.48-33.92L548.48-10.88L548.48-10.88Q548.48-7.10 547.01-4.54L547.01-4.54L551.68 0.13L548.03 3.78L543.10-1.15ZM542.91-35.14L542.91-35.14Q542.91-37.12 541.44-38.53L541.44-38.53L541.44-38.53Q539.97-39.94 537.60-39.94L537.60-39.94L533.76-39.94L533.76-39.94Q531.39-39.94 529.92-38.53L529.92-38.53L529.92-38.53Q528.45-37.12 528.45-35.14L528.45-35.14L528.45-9.66L528.45-9.66Q528.45-7.68 529.92-6.27L529.92-6.27L529.92-6.27Q531.39-4.86 533.76-4.86L533.76-4.86L537.60-4.86L537.60-4.86Q539.97-4.86 541.44-6.27L541.44-6.27L541.44-6.27Q542.91-7.68 542.91-9.66L542.91-9.66L542.91-35.14ZM582.53-10.88L582.53-10.88Q582.53-5.44 579.55-2.72L579.55-2.72L579.55-2.72Q576.58 0 571.01 0L571.01 0L569.41 0L569.41 0Q563.84 0 560.86-2.72L560.86-2.72L560.86-2.72Q557.89-5.44 557.89-10.88L557.89-10.88L557.89-44.80L563.46-44.80L563.46-9.66L563.46-9.66Q563.46-7.68 564.93-6.27L564.93-6.27L564.93-6.27Q566.40-4.86 568.77-4.86L568.77-4.86L571.65-4.86L571.65-4.86Q574.02-4.86 575.49-6.27L575.49-6.27L575.49-6.27Q576.96-7.68 576.96-9.66L576.96-9.66L576.96-44.80L582.53-44.80L582.53-10.88ZM594.11-44.80L615.49-44.80L615.49-40.13L599.68-40.13L599.68-25.47L613.89-25.47L613.89-20.80L599.68-20.80L599.68-4.67L615.49-4.67L615.49 0L594.11 0L594.11-44.80ZM630.78-4.67L636.54-4.67L636.54-40.13L630.78-40.13L630.78-44.80L647.87-44.80L647.87-40.13L642.11-40.13L642.11-4.67L647.87-4.67L647.87 0L630.78 0L630.78-4.67ZM672.96-18.56L666.69-18.56L666.69 0L661.12 0L661.12-44.80L673.15-44.80L673.15-44.80Q678.59-44.80 681.38-42.40L681.38-42.40L681.38-42.40Q684.16-40 684.16-34.82L684.16-34.82L684.16-28.67L684.16-28.67Q684.16-21.44 678.40-19.65L678.40-19.65L687.30 0L681.22 0L672.96-18.56ZM678.59-35.39L678.59-35.39Q678.59-37.82 677.47-38.91L677.47-38.91L677.47-38.91Q676.35-40 673.92-40L673.92-40L666.69-40L666.69-23.36L673.92-23.36L673.92-23.36Q676.35-23.36 677.47-24.48L677.47-24.48L677.47-24.48Q678.59-25.60 678.59-28.03L678.59-28.03L678.59-35.39ZM714.75-11.33L702.27-11.33L699.78 0L694.08 0L704.90-44.80L712.26-44.80L722.88 0L717.18 0L714.75-11.33ZM703.30-16.13L713.73-16.13L708.48-40.58L703.30-16.13Z" fill="none" stroke="#e9ffd4" stroke-width="1"></path></g></g><style>text {
  font-size: 64px;
  font-family: Arial Black;
  dominant-baseline: central;
  text-anchor: middle;
}</style></svg>